HIERARCHY
ROOT root
{
	OFFSET	0	13.1	24.9
	CHANNELS 6  Xposition Yposition Zposition Xrotation Yrotation Zrotation
	JOINT spine_1
	{
		OFFSET	0	9.99999	0
		CHANNELS 3  Xrotation Yrotation Zrotation
		JOINT spine_2
		{
			OFFSET	0	112	-10
			CHANNELS 3  Xrotation Yrotation Zrotation
			JOINT spine_3
			{
				OFFSET	0	206.5	19.3
				CHANNELS 3  Xrotation Yrotation Zrotation
				JOINT spine_4
				{
					OFFSET	0	110.4	14.6
					CHANNELS 3  Xrotation Yrotation Zrotation
					JOINT neck_1
					{
						OFFSET	0	71.8	-50.3
						CHANNELS 3  Xrotation Yrotation Zrotation
						JOINT neck_2
						{
							OFFSET	0	86.2	-25.8
							CHANNELS 3  Xrotation Yrotation Zrotation
							JOINT head_ee
							{
								OFFSET	0	179.8	-8.7
								CHANNELS 3  Xrotation Yrotation Zrotation
								End Site
								{
									OFFSET	1	0	0
								}
							}
						}
					}
					JOINT left_clavicle
					{
						OFFSET	-43.2	22.4	-70.8
						CHANNELS 3  Xrotation Yrotation Zrotation
						JOINT left_shoulder
						{
							OFFSET	-93.9	-5.79999	48.7
							CHANNELS 3  Xrotation Yrotation Zrotation
							JOINT left_elbow
							{
								OFFSET	-291.4	-30.8	15.2
								CHANNELS 3  Xrotation Yrotation Zrotation
								JOINT left_lowarm_twist
								{
									OFFSET	-110.7	-3.89999	13.6
									CHANNELS 3  Xrotation Yrotation Zrotation
									JOINT left_hand
									{
										OFFSET	-110.7	-3.89999	13.6
										CHANNELS 3  Xrotation Yrotation Zrotation
										JOINT left_ee
										{
											OFFSET	-80.8	-5.10001	12.1
											CHANNELS 3  Xrotation Yrotation Zrotation
											End Site
											{
												OFFSET	1	0	0
											}
										}
									}
								}
							}
						}
					}
					JOINT right_clavicle
					{
						OFFSET	43.2	22.4	-70.8
						CHANNELS 3  Xrotation Yrotation Zrotation
						JOINT right_shoulder
						{
							OFFSET	93.9	-5.79999	48.7
							CHANNELS 3  Xrotation Yrotation Zrotation
							JOINT right_elbow
							{
								OFFSET	291.4	-30.8	15.2
								CHANNELS 3  Xrotation Yrotation Zrotation
								JOINT right_lowarm_twist
								{
									OFFSET	110.7	-3.89999	13.6
									CHANNELS 3  Xrotation Yrotation Zrotation
									JOINT right_hand
									{
										OFFSET	110.7	-3.89999	13.6
										CHANNELS 3  Xrotation Yrotation Zrotation
										JOINT right_ee
										{
											OFFSET	80.8	-5.10001	12.1
											CHANNELS 3  Xrotation Yrotation Zrotation
											End Site
											{
												OFFSET	1	0	0
											}
										}
									}
								}
							}
						}
					}
				}
			}
		}
	}
	JOINT left_hip
	{
		OFFSET	-82.8	-127.5	0.300001
		CHANNELS 3  Xrotation Yrotation Zrotation
		JOINT left_knee
		{
			OFFSET	-28.2	-396.7	2.2
			CHANNELS 3  Xrotation Yrotation Zrotation
			JOINT left_ankle
			{
				OFFSET	-11.7	-411.3	35.4
				CHANNELS 3  Xrotation Yrotation Zrotation
				JOINT left_toes
				{
					OFFSET	0	-60	-88.6
					CHANNELS 3  Xrotation Yrotation Zrotation
					JOINT left_foot_ee
					{
						OFFSET	-22.5	-16.5	-42.2
						CHANNELS 3  Xrotation Yrotation Zrotation
						End Site
						{
							OFFSET	1	0	0
						}
					}
				}
			}
		}
	}
	JOINT right_hip
	{
		OFFSET	82.8	-127.5	0.300001
		CHANNELS 3  Xrotation Yrotation Zrotation
		JOINT right_knee
		{
			OFFSET	28.2	-396.7	2.2
			CHANNELS 3  Xrotation Yrotation Zrotation
			JOINT right_ankle
			{
				OFFSET	11.7	-411.3	35.4
				CHANNELS 3  Xrotation Yrotation Zrotation
				JOINT right_toes
				{
					OFFSET	0	-60	-88.6
					CHANNELS 3  Xrotation Yrotation Zrotation
					JOINT right_foot_ee
					{
						OFFSET	22.5	-16.5	-42.2
						CHANNELS 3  Xrotation Yrotation Zrotation
						End Site
						{
							OFFSET	1	0	0
						}
					}
				}
			}
		}
	}
}
MOTION
Frames: 5
Frame Time: 0.02
2065.89 645.575 -482.061 90.0001 -88.6397 90.0001 -0.671471 0.320407 -0.386307 -0.671454 0.344339 -0.365136 -0.673717 0.416713 -0.279721 -0.673638 0.367307 -0.342022 -8.07128 10.1978 9.10235 -7.87362 12.6199 11.1988 -0.0 0.0 -0.0 4.68026 22.8318 9.18235 -19.013 -16.2579 65.4606 0.194127 -5.49309 0.00931287 57.3861 -1.54682 -6.86162 -4.84876 29.1715 -14.8096 -0.0 0.0 -0.0 11.6027 15.0583 -23.2903 38.0879 -20.0916 -62.427 2.09888 46.11 -0.893382 73.4338 3.10425 8.19718 1.29003 -29.4663 -18.6958 0.0 0.0 0.0 34.306 -13.731 -2.85779 -14.3853 0.320258 2.17858 -11.1562 25.9634 1.74426 3.33882 -0.0 -0.0 -0.0 0.0 -0.0 -13.8477 22.678 -6.06462 -14.0097 -0.318894 -2.12098 40.8254 -2.52923 4.93253 -0.629247 0.0 0.0 0.0 0.0 0.0 
2094.94 641.004 -485.741 110.905 -88.6734 111.999 -0.63012 0.228315 -0.552962 -0.629988 0.263038 -0.537314 -0.632463 0.37527 -0.465906 -0.632643 0.296981 -0.519325 -8.06139 11.7838 10.0443 -7.82373 14.9229 12.4596 -0.0 0.0 -0.0 4.93986 22.5237 9.56054 -19.1018 -15.7271 65.5806 0.186633 -5.28227 0.00860919 60.1583 -1.78804 -7.12252 -4.91984 29.2108 -15.1792 -0.0 0.0 -0.0 10.9015 14.8744 -21.7127 34.4006 -17.0958 -63.3107 2.01866 44.9944 -0.836111 72.5214 3.00611 8.1333 0.908276 -29.4235 -16.5209 0.0 0.0 0.0 35.1583 -14.1445 -2.74946 -19.2258 0.304047 2.92087 -15.2101 27.4904 2.40836 5.90074 -0.0 -0.0 -0.0 0.0 -0.0 -16.1692 22.7718 -5.89774 -13.0459 -0.313664 -1.9732 39.6207 -0.464728 4.83993 -0.192453 0.0 0.0 0.0 0.0 0.0 
2121.56 640.929 -492.037 95.2828 -88.7719 96.875 -0.408661 0.0397135 -0.79808 -0.408311 0.0904153 -0.793936 -0.409414 0.260684 -0.755352 -0.410184 0.138123 -0.78704 -7.719 12.7251 10.459 -7.45711 16.3026 13.0295 -0.0 0.0 -0.0 5.21088 22.6356 9.94352 -18.5324 -15.0953 65.9893 0.18686 -5.28865 0.00863016 63.1386 -2.06118 -7.38971 -4.83594 29.1761 -14.7346 -0.0 0.0 -0.0 10.834 11.3031 -21.6556 31.1898 -13.8667 -64.2897 1.96645 44.2441 -0.79944 71.7267 2.92148 8.0764 0.862037 -29.4096 -16.257 0.0 0.0 0.0 35.5033 -14.4661 -2.19435 -23.0446 0.247072 3.50396 -14.7733 29.359 2.36583 8.34662 -0.0 -0.0 -0.0 0.0 -0.0 -17.9802 22.6042 -5.8135 -12.2949 -0.307866 -1.8581 39.3311 0.770321 4.82409 0.214345 -0.0 -0.0 0.0 0.0 0.0 
2146.41 645.047 -498.601 86.0738 -89.3305 88.0033 -0.329268 -0.0453408 -0.964236 -0.328751 0.0161051 -0.965167 -0.328758 0.224013 -0.938952 -0.329981 0.0729187 -0.962544 -8.85859 13.351 11.8366 -8.53909 16.8246 14.6285 -0.0 0.0 -0.0 5.73069 22.4521 10.6982 -17.1498 -14.9827 66.212 0.197613 -5.5911 0.00964949 66.1377 -2.34976 -7.64401 -4.80973 28.9932 -14.7184 -0.0 0.0 -0.0 10.5562 9.82995 -21.0563 27.5271 -11.164 -64.1705 1.9518 44.0301 -0.789239 70.9528 2.83983 8.01987 0.701473 -29.2234 -15.3021 0.0 0.0 0.0 35.8777 -15.4937 -2.41145 -24.1926 0.222358 3.67839 -18.901 29.9231 3.04666 8.68269 -0.0 -0.0 -0.0 0.0 -0.0 -19.3079 22.7916 -5.25754 -11.2898 -0.297748 -1.70423 38.3481 1.88854 4.74759 0.51249 -0.0 -0.0 0.0 0.0 0.0 
2178.66 649.029 -501.953 125.996 -89.2279 129.754 -0.136072 -0.0132125 -1.19353 -0.135281 0.0627563 -1.19195 -0.136249 0.31466 -1.15139 -0.138076 0.128885 -1.18663 -8.78482 14.0083 12.8167 -8.4005 17.3519 15.7131 -0.0 0.0 -0.0 6.11755 22.2437 11.2707 -16.6969 -14.5245 66.4888 0.205378 -5.80934 0.0104208 69.2194 -2.65978 -7.8893 -4.80875 28.9804 -14.722 -0.0 0.0 -0.0 9.61897 7.15193 -19.0247 23.1067 -7.74478 -65.0329 1.81069 41.887 -0.693061 68.9395 2.63107 7.8677 0.472101 -29.2778 -14.0411 0.0 0.0 0.0 34.9567 -16.2568 -1.95329 -27.2059 0.140903 4.13361 -20.294 29.6964 3.26821 11.3045 -0.0 -0.0 -0.0 0.0 -0.0 -20.7772 22.6117 -4.6144 -10.8906 -0.292981 -1.64316 32.7633 1.62874 4.2116 1.28099 -0.0 -0.0 0.0 0.0 0.0 
